<svg width="35" height="44" viewBox="0 0 35 44" fill="none" xmlns="http://www.w3.org/2000/svg">
<g clip-path="url(#clip0_158_210)">
<path d="M35 21.9923C35 16.1329 32.1623 10.6835 27.4077 7.3608V7.35943C27.3538 7.32116 27.3054 7.27469 27.2502 7.23642L27.2394 7.25419C27.0068 7.0815 26.7252 6.99035 26.4371 6.9945C26.0779 7.00942 25.7391 7.16852 25.4953 7.43683C25.2515 7.70514 25.1225 8.06074 25.1367 8.42553C25.1476 8.64154 25.2093 8.85175 25.3169 9.03846C25.4244 9.22518 25.5745 9.38293 25.7546 9.49846L25.7492 9.50666C27.7686 10.8809 29.4233 12.7391 30.5672 14.917C31.7111 17.0949 32.3089 19.5254 32.3077 21.9937C32.3077 30.1603 25.8583 36.8124 17.8608 37.0093L19.5623 35.2816C19.7137 35.1612 19.8376 35.0089 19.9257 34.8353C20.0138 34.6616 20.0638 34.4708 20.0725 34.2757C20.0797 34.095 20.0518 33.9147 19.9903 33.7449C19.9289 33.5752 19.8351 33.4195 19.7143 33.2866C19.5936 33.1537 19.4482 33.0463 19.2865 32.9704C19.1249 32.8946 18.9501 32.8518 18.7721 32.8446C18.577 32.8391 18.383 32.8771 18.2039 32.956C18.0248 33.0349 17.8649 33.1527 17.7356 33.3011L17.7194 33.2847L12.6579 38.4266L17.7329 43.4332L17.7463 43.4195C17.8624 43.5892 18.0152 43.7297 18.193 43.8301C18.3708 43.9306 18.5689 43.9884 18.7721 43.999C19.1314 44.0127 19.4813 43.8811 19.7451 43.633C20.0088 43.3849 20.1648 43.0407 20.1788 42.676C20.1844 42.4452 20.1321 42.2167 20.0268 42.0121C19.9216 41.8074 19.7668 41.6333 19.5771 41.506L19.6094 41.4718L17.8581 39.7428C27.3417 39.5474 35 31.6692 35 21.9937M16.8444 6.99176L15.1887 8.62645L15.221 8.66062C15.0308 8.78744 14.8757 8.96149 14.7704 9.16624C14.6651 9.371 14.6131 9.59968 14.6192 9.83059C14.6488 10.5905 15.2775 11.1837 16.026 11.1523C16.2291 11.1418 16.4271 11.0842 16.6049 10.984C16.7827 10.8838 16.9355 10.7436 17.0517 10.5741L17.0638 10.5878L22.1375 5.58123L17.0787 0.442096L17.0625 0.455764C16.9329 0.307295 16.7728 0.189565 16.5934 0.110912C16.4141 0.032259 16.2199 -0.00539305 16.0246 0.000622364C15.2775 0.029325 14.696 0.670351 14.7242 1.43029C14.7337 1.62617 14.7847 1.81767 14.8736 1.99174C14.9626 2.16582 15.0875 2.31836 15.2398 2.43898L17.0221 4.24998C7.59365 4.51104 0 12.3592 0 21.9937C0 27.9051 2.88481 33.4132 7.71346 36.7277L9.22115 34.4616C7.21029 33.0854 5.56323 31.2286 4.4248 29.0546C3.28637 26.8806 2.69144 24.4559 2.69231 21.9937C2.69231 13.9296 8.98423 7.3444 16.8444 6.99176Z" fill="#515151"/>
<path d="M19.6842 14.6997L25.3002 20.3169C25.7468 20.7637 25.9977 21.3695 25.9977 22.0011C25.9977 22.6328 25.7468 23.2386 25.3002 23.6854L19.6842 29.3014C19.463 29.5227 19.2003 29.6983 18.9112 29.818C18.6221 29.9378 18.3123 29.9994 17.9994 29.9994C17.6865 29.9994 17.3766 29.9378 17.0875 29.818C16.7985 29.6983 16.5358 29.5227 16.3146 29.3014L10.6985 23.6842C10.2519 23.2375 10.0011 22.6317 10.0011 22C10.0011 21.3683 10.2519 20.7625 10.6985 20.3158L16.3157 14.6997C16.5369 14.4784 16.7996 14.3029 17.0887 14.1831C17.3778 14.0634 17.6876 14.0017 18.0005 14.0017C18.3134 14.0017 18.6233 14.0634 18.9124 14.1831C19.2014 14.3029 19.4641 14.4784 19.6853 14.6997H19.6842Z" fill="#515151"/>
</g>
<defs>
<clipPath id="clip0_158_210">
<rect width="35" height="44" fill="white"/>
</clipPath>
</defs>
</svg>
